<svg width="154" height="40" viewBox="0 0 154 40" fill="none" xmlns="http://www.w3.org/2000/svg">
<path opacity="0.36" d="M0.0742188 5.33201C0.0742188 2.90445 2.04214 0.936523 4.4697 0.936523H149.521C151.948 0.936523 153.916 2.90445 153.916 5.33201V35.0015C153.916 37.4291 151.948 39.397 149.521 39.397H4.4697C2.04214 39.397 0.0742188 37.4291 0.0742188 35.0015V5.33201Z" fill="black"/>
<path d="M60.1953 25.167V15.1455H61.5215V23.9844H66.457V25.167H60.1953ZM72.623 24.2715C72.1673 24.6589 71.7275 24.9323 71.3037 25.0918C70.8844 25.2513 70.4333 25.3311 69.9502 25.3311C69.1527 25.3311 68.5397 25.1374 68.1113 24.75C67.6829 24.3581 67.4688 23.859 67.4688 23.2529C67.4688 22.8975 67.5485 22.5739 67.708 22.2822C67.8721 21.986 68.084 21.749 68.3438 21.5713C68.6081 21.3936 68.9043 21.2591 69.2324 21.168C69.474 21.1042 69.8385 21.0426 70.3262 20.9834C71.3197 20.8649 72.0511 20.7236 72.5205 20.5596C72.5251 20.391 72.5273 20.2839 72.5273 20.2383C72.5273 19.737 72.4111 19.3838 72.1787 19.1787C71.8643 18.9007 71.3971 18.7617 70.7773 18.7617C70.1986 18.7617 69.7702 18.8643 69.4922 19.0693C69.2188 19.2699 69.016 19.6276 68.8838 20.1426L67.6807 19.9785C67.79 19.4635 67.9701 19.0488 68.2207 18.7344C68.4714 18.4154 68.8337 18.1715 69.3076 18.0029C69.7816 17.8298 70.3307 17.7432 70.9551 17.7432C71.5749 17.7432 72.0785 17.8161 72.4658 17.9619C72.8532 18.1077 73.138 18.2923 73.3203 18.5156C73.5026 18.7344 73.6302 19.0124 73.7031 19.3496C73.7441 19.5592 73.7646 19.9375 73.7646 20.4844V22.125C73.7646 23.2689 73.7897 23.9935 73.8398 24.2988C73.8945 24.5996 73.9993 24.889 74.1543 25.167H72.8691C72.7415 24.9118 72.6595 24.6133 72.623 24.2715ZM72.5205 21.5234C72.0739 21.7057 71.404 21.8607 70.5107 21.9883C70.0049 22.0612 69.6471 22.1432 69.4375 22.2344C69.2279 22.3255 69.0661 22.46 68.9521 22.6377C68.8382 22.8109 68.7812 23.0046 68.7812 23.2188C68.7812 23.5469 68.9043 23.8203 69.1504 24.0391C69.401 24.2578 69.7656 24.3672 70.2441 24.3672C70.7181 24.3672 71.1396 24.2646 71.5088 24.0596C71.8779 23.8499 72.1491 23.5651 72.3223 23.2051C72.4544 22.9271 72.5205 22.5169 72.5205 21.9746V21.5234ZM75.665 25.167V17.9072H76.7725V19.0078C77.055 18.4928 77.3148 18.1533 77.5518 17.9893C77.7933 17.8252 78.0576 17.7432 78.3447 17.7432C78.7594 17.7432 79.181 17.8753 79.6094 18.1396L79.1855 19.2812C78.8848 19.1035 78.584 19.0146 78.2832 19.0146C78.0143 19.0146 77.7728 19.0967 77.5586 19.2607C77.3444 19.4202 77.1917 19.6436 77.1006 19.9307C76.9639 20.3682 76.8955 20.8467 76.8955 21.3662V25.167H75.665ZM80.1152 25.7686L81.3115 25.9463C81.3617 26.3154 81.5007 26.5843 81.7285 26.7529C82.0339 26.9808 82.4508 27.0947 82.9795 27.0947C83.5492 27.0947 83.9889 26.9808 84.2988 26.7529C84.6087 26.5251 84.8184 26.2061 84.9277 25.7959C84.9915 25.5452 85.0212 25.0189 85.0166 24.2168C84.4788 24.8503 83.8089 25.167 83.0068 25.167C82.0088 25.167 81.2363 24.807 80.6895 24.0869C80.1426 23.3669 79.8691 22.5033 79.8691 21.4961C79.8691 20.8034 79.9945 20.1654 80.2451 19.582C80.4958 18.9941 80.8581 18.5407 81.332 18.2217C81.8105 17.9027 82.3711 17.7432 83.0137 17.7432C83.8704 17.7432 84.5768 18.0895 85.1328 18.7822V17.9072H86.2676V24.1826C86.2676 25.3128 86.1514 26.1126 85.9189 26.582C85.6911 27.056 85.3265 27.4297 84.8252 27.7031C84.3285 27.9766 83.7155 28.1133 82.9863 28.1133C82.1204 28.1133 81.4209 27.9173 80.8877 27.5254C80.3545 27.138 80.097 26.5524 80.1152 25.7686ZM81.1338 21.4072C81.1338 22.3597 81.3229 23.0547 81.7012 23.4922C82.0794 23.9297 82.5534 24.1484 83.123 24.1484C83.6882 24.1484 84.1621 23.932 84.5449 23.499C84.9277 23.0615 85.1191 22.3779 85.1191 21.4482C85.1191 20.5596 84.9209 19.8896 84.5244 19.4385C84.1325 18.9873 83.6585 18.7617 83.1025 18.7617C82.5557 18.7617 82.0908 18.985 81.708 19.4316C81.3252 19.8737 81.1338 20.5322 81.1338 21.4072ZM93.1035 22.8291L94.375 22.9863C94.1745 23.7292 93.8031 24.3057 93.2607 24.7158C92.7184 25.126 92.0257 25.3311 91.1826 25.3311C90.1208 25.3311 89.2777 25.0052 88.6533 24.3535C88.0335 23.6973 87.7236 22.779 87.7236 21.5986C87.7236 20.3773 88.0381 19.4294 88.667 18.7549C89.2959 18.0804 90.1117 17.7432 91.1143 17.7432C92.085 17.7432 92.8779 18.0736 93.4932 18.7344C94.1084 19.3952 94.416 20.3249 94.416 21.5234C94.416 21.5964 94.4137 21.7057 94.4092 21.8516H88.9951C89.0407 22.6491 89.2663 23.2598 89.6719 23.6836C90.0775 24.1074 90.5833 24.3193 91.1895 24.3193C91.6406 24.3193 92.0257 24.2008 92.3447 23.9639C92.6637 23.7269 92.9167 23.3486 93.1035 22.8291ZM89.0635 20.8398H93.1172C93.0625 20.2292 92.9076 19.7712 92.6523 19.4658C92.2604 18.9919 91.7523 18.7549 91.1279 18.7549C90.5628 18.7549 90.0866 18.944 89.6992 19.3223C89.3164 19.7005 89.1045 20.2064 89.0635 20.8398ZM102.845 25.167L98.9619 15.1455H100.397L103.002 22.4258C103.212 23.0091 103.387 23.556 103.528 24.0664C103.683 23.5195 103.863 22.9727 104.068 22.4258L106.775 15.1455H108.129L104.205 25.167H102.845ZM108.908 16.5605V15.1455H110.139V16.5605H108.908ZM108.908 25.167V17.9072H110.139V25.167H108.908ZM116.988 22.8291L118.26 22.9863C118.059 23.7292 117.688 24.3057 117.146 24.7158C116.603 25.126 115.91 25.3311 115.067 25.3311C114.006 25.3311 113.162 25.0052 112.538 24.3535C111.918 23.6973 111.608 22.779 111.608 21.5986C111.608 20.3773 111.923 19.4294 112.552 18.7549C113.181 18.0804 113.996 17.7432 114.999 17.7432C115.97 17.7432 116.763 18.0736 117.378 18.7344C117.993 19.3952 118.301 20.3249 118.301 21.5234C118.301 21.5964 118.299 21.7057 118.294 21.8516H112.88C112.925 22.6491 113.151 23.2598 113.557 23.6836C113.962 24.1074 114.468 24.3193 115.074 24.3193C115.525 24.3193 115.91 24.2008 116.229 23.9639C116.549 23.7269 116.801 23.3486 116.988 22.8291ZM112.948 20.8398H117.002C116.947 20.2292 116.792 19.7712 116.537 19.4658C116.145 18.9919 115.637 18.7549 115.013 18.7549C114.448 18.7549 113.971 18.944 113.584 19.3223C113.201 19.7005 112.989 20.2064 112.948 20.8398ZM121.151 25.167L118.93 17.9072H120.201L121.356 22.0977L121.787 23.6562C121.805 23.5788 121.931 23.0798 122.163 22.1592L123.318 17.9072H124.583L125.67 22.1182L126.032 23.5059L126.449 22.1045L127.693 17.9072H128.89L126.62 25.167H125.342L124.187 20.8193L123.906 19.582L122.437 25.167H121.151Z" fill="#F3F4F7"/>
<path d="M39.8008 13.1187H43.3677V16.6856" stroke="white" stroke-width="1.42678" stroke-linecap="round" stroke-linejoin="round"/>
<path d="M38.375 18.1124L43.3687 13.1187" stroke="white" stroke-width="1.42678" stroke-linecap="round" stroke-linejoin="round"/>
<path d="M32.6685 27.3865H29.1016V23.8196" stroke="white" stroke-width="1.42678" stroke-linecap="round" stroke-linejoin="round"/>
<path d="M34.0953 22.3927L29.1016 27.3864" stroke="white" stroke-width="1.42678" stroke-linecap="round" stroke-linejoin="round"/>
<path d="M43.3677 23.8196V27.3865H39.8008" stroke="white" stroke-width="1.42678" stroke-linecap="round" stroke-linejoin="round"/>
<path d="M38.375 22.3927L43.3687 27.3864" stroke="white" stroke-width="1.42678" stroke-linecap="round" stroke-linejoin="round"/>
<path d="M29.1016 16.6856V13.1187H32.6685" stroke="white" stroke-width="1.42678" stroke-linecap="round" stroke-linejoin="round"/>
<path d="M34.0953 18.1124L29.1016 13.1187" stroke="white" stroke-width="1.42678" stroke-linecap="round" stroke-linejoin="round"/>
</svg>
