<svg width="121" height="121" viewBox="0 0 121 121" fill="none" xmlns="http://www.w3.org/2000/svg">
<path d="M62.7304 107.346C63.0532 106.789 63.5373 106.231 63.6986 105.674C66.3613 97.8707 71.6865 92.2173 78.7062 88.1564C83.4666 85.3695 88.5498 83.0603 93.391 80.3531C104.606 74.0627 110.174 64.3484 110.819 51.7675C110.98 48.3437 110.496 44.9198 110.335 41.1774C108.318 44.2828 106.704 46.99 104.848 49.538C102.186 53.1212 98.4742 55.3507 94.5206 57.421C89.7601 60.0486 84.9997 62.6762 80.1585 65.3039C81.6109 62.8355 84.4349 60.8448 84.2735 57.0228C79.271 59.0135 74.9946 61.4818 71.4445 65.1446C65.393 71.3554 62.8111 79.0791 62.327 87.4397C61.9236 93.969 62.2463 100.578 62.2463 107.107C62.4077 107.187 62.569 107.266 62.7304 107.346Z" fill="#F3F4F7"/>
<circle cx="60.2447" cy="23.5511" r="10.5963" fill="#F3F4F7"/>
<path d="M57.5665 107.346C57.2437 106.789 56.7596 106.232 56.5982 105.674C53.9356 97.8709 48.6104 92.2175 41.5907 88.1566C36.8302 85.3697 31.747 83.0606 26.9059 80.3533C15.6906 74.0629 10.1233 64.3486 9.47779 51.7678C9.31642 48.3439 9.80053 44.92 9.96191 41.1776C11.979 44.283 13.5928 46.9903 15.4485 49.5383C18.1112 53.1214 21.8227 55.3509 25.7763 57.4212C30.5368 60.0488 35.2972 62.6765 40.1384 65.3041C38.686 62.8357 35.862 60.8451 36.0234 57.0231C41.0259 59.0137 45.3022 61.4821 48.8524 65.1449C54.9038 71.3556 57.4858 79.0793 57.9699 87.44C58.3733 93.9693 58.0506 100.578 58.0506 107.107C57.8892 107.187 57.7278 107.267 57.5665 107.346Z" fill="#F3F4F7"/>
<path d="M60.1508 72.5319C60.1554 72.5669 60.1578 72.5847 60.1578 72.5847C65.6308 60.0027 73.0318 57.4949 76.8875 56.1884C77.8473 55.8632 78.5874 55.6124 79.0234 55.2992C79.416 55.0642 79.8262 54.8545 80.2698 54.6277C82.2978 53.5908 85.0244 52.1967 89.9599 46.3946C95.975 39.3232 93.5143 25.4424 93.5143 25.4424C93.5143 25.4424 92.9675 24.3948 88.046 30.4186C86.0961 32.8052 82.4724 34.1229 78.5181 35.5608C72.492 37.752 65.6984 40.2223 62.892 47.1803C61.3842 50.9184 60.5669 54.9046 60.1508 58.5846C59.7347 54.9046 58.9175 50.9184 57.4097 47.1803C54.6032 40.2223 47.8097 37.752 41.7836 35.5608C37.8293 34.1229 34.2055 32.8052 32.2556 30.4186C27.3342 24.3948 26.7874 25.4424 26.7874 25.4424C26.7874 25.4424 24.3266 39.3232 30.3417 46.3946C35.2772 52.1967 38.0038 53.5908 40.0319 54.6277C40.4755 54.8545 40.8857 55.0642 41.2783 55.2992C41.7143 55.6124 42.4544 55.8632 43.4142 56.1884C47.2698 57.4949 54.6709 60.0027 60.1438 72.5847C60.1438 72.5847 60.1463 72.5669 60.1508 72.5319Z" fill="#F3F4F7"/>
<circle cx="60.1506" cy="60.1506" r="58.3374" stroke="#F3F4F7" stroke-width="3.62633"/>
</svg>
