<svg width="353" height="353" viewBox="0 0 353 353" fill="none" xmlns="http://www.w3.org/2000/svg">
<g clip-path="url(#clip0)">
<path d="M183.5 301.5C184.4 300 185.6 298.5 186.1 297.1C193.2 276.4 207.3 261.4 225.9 250.7C238.5 243.3 252 237.2 264.8 230C294.5 213.3 309.3 187.6 311 154.2C311.4 145.1 310.1 136 309.7 126.1C304.4 134.3 300.1 141.5 295.2 148.3C288.1 157.8 278.3 163.7 267.8 169.2C255.2 176.2 242.6 183.1 229.7 190.1C233.6 183.6 241 178.3 240.6 168.1C227.3 173.4 216 179.9 206.6 189.6C190.6 206.1 183.7 226.5 182.4 248.7C181.3 266 182.2 283.5 182.2 300.8C182.7 301.1 183.1 301.3 183.5 301.5Z" fill="black"/>
<path d="M176.9 107.4C192.419 107.4 205 94.8194 205 79.3002C205 63.781 192.419 51.2002 176.9 51.2002C161.381 51.2002 148.8 63.781 148.8 79.3002C148.8 94.8194 161.381 107.4 176.9 107.4Z" fill="black"/>
<path d="M169.8 301.5C168.9 300 167.7 298.5 167.2 297.1C160.1 276.4 146 261.4 127.4 250.7C114.8 243.3 101.3 237.2 88.4996 230C58.7996 213.3 43.9996 187.6 42.2996 154.2C41.8996 145.1 43.1996 136 43.5996 126.1C48.8996 134.3 53.1996 141.5 58.0996 148.3C65.1996 157.8 74.9996 163.7 85.4996 169.2C98.0996 176.2 110.7 183.1 123.6 190.1C119.7 183.6 112.3 178.3 112.7 168.1C126 173.4 137.3 179.9 146.7 189.6C162.7 206.1 169.6 226.5 170.9 248.7C172 266 171.1 283.5 171.1 300.8C170.7 301.1 170.2 301.3 169.8 301.5Z" fill="black"/>
<path d="M176.7 209.3C191.2 175.9 210.8 169.3 221.1 165.8C223.6 164.9 225.6 164.3 226.8 163.4C227.8 162.8 228.9 162.2 230.1 161.6C235.5 158.9 242.7 155.2 255.8 139.8C271.7 121.1 265.2 84.2995 265.2 84.2995C265.2 84.2995 263.8 81.4995 250.7 97.4995C245.5 103.8 235.9 107.3 225.4 111.1C209.4 116.9 191.4 123.5 184 141.9C180 151.8 177.8 162.4 176.7 172.1C175.6 162.3 173.4 151.8 169.4 141.9C162 123.5 143.9 116.9 128 111.1C117.5 107.3 107.9 103.8 102.7 97.4995C89.7 81.4995 88.2 84.2995 88.2 84.2995C88.2 84.2995 81.7 121.1 97.6 139.8C110.7 155.2 117.9 158.9 123.3 161.6C124.5 162.2 125.6 162.8 126.6 163.4C127.8 164.2 129.7 164.9 132.3 165.8C142.5 169.3 162.1 175.9 176.7 209.3Z" fill="black"/>
<path d="M176.7 347.8C271.361 347.8 348.1 271.062 348.1 176.4C348.1 81.7384 271.361 5 176.7 5C82.0382 5 5.2998 81.7384 5.2998 176.4C5.2998 271.062 82.0382 347.8 176.7 347.8Z" stroke="black" stroke-width="10"/>
</g>
<defs>
<clipPath id="clip0">
<rect width="352.7" height="352.7" fill="white" transform="translate(0.299805)"/>
</clipPath>
</defs>
</svg>
</g>
<defs>
<clipPath id="clip0">
<rect width="352.7" height="352.7" fill="white" transform="translate(0.299805)"/>
</clipPath>
</defs>
</svg>
