<svg width="122" height="121" viewBox="0 0 122 121" fill="none" xmlns="http://www.w3.org/2000/svg">
<path d="M63.6562 107.96C63.9789 107.402 64.4631 106.845 64.6244 106.288C67.287 98.4843 72.6123 92.8309 79.632 88.77C84.3924 85.9831 89.4756 83.674 94.3168 80.9667C105.532 74.6763 111.099 64.962 111.745 52.3812C111.906 48.9573 111.422 45.5334 111.261 41.791C109.244 44.8964 107.63 47.6037 105.774 50.1517C103.111 53.7348 99.4 55.9643 95.4464 58.0346C90.6859 60.6622 85.9254 63.2899 81.0843 65.9175C82.5366 63.4491 85.3606 61.4585 85.1993 57.6365C80.1968 59.6271 75.9204 62.0955 72.3703 65.7583C66.3188 71.969 63.7369 79.6927 63.2528 88.0534C62.8493 94.5827 63.1721 101.192 63.1721 107.721C63.3335 107.8 63.4948 107.88 63.6562 107.96Z" fill="#000"/>
<circle cx="61.1705" cy="24.1646" r="10.5963" fill="#000"/>
<path d="M58.4903 107.96C58.1675 107.402 57.6834 106.845 57.5221 106.288C54.8594 98.4843 49.5342 92.8309 42.5145 88.77C37.7541 85.9831 32.6709 83.674 27.8297 80.9667C16.6144 74.6763 11.0471 64.962 10.4016 52.3812C10.2402 48.9573 10.7244 45.5334 10.8857 41.791C12.9029 44.8964 14.5166 47.6037 16.3724 50.1517C19.035 53.7348 22.7465 55.9643 26.7001 58.0346C31.4606 60.6622 36.221 63.2899 41.0622 65.9175C39.6098 63.4491 36.7858 61.4585 36.9472 57.6365C41.9497 59.6271 46.2261 62.0955 49.7762 65.7583C55.8277 71.969 58.4096 79.6927 58.8937 88.0534C59.2971 94.5827 58.9744 101.192 58.9744 107.721C58.813 107.8 58.6517 107.88 58.4903 107.96Z" fill="#000"/>
<path d="M61.0747 73.1455C61.0792 73.1805 61.0817 73.1984 61.0817 73.1984C66.5546 60.6164 73.9557 58.1086 77.8113 56.8021C78.7711 56.4769 79.5112 56.2261 79.9472 55.9129C80.3398 55.6778 80.75 55.4681 81.1936 55.2413C83.2217 54.2044 85.9483 52.8104 90.8838 47.0082C96.8989 39.9369 94.4381 26.0561 94.4381 26.0561C94.4381 26.0561 93.8913 25.0085 88.9699 31.0322C87.02 33.4189 83.3962 34.7366 79.4419 36.1744C73.4159 38.3657 66.6223 40.836 63.8158 47.7939C62.308 51.5321 61.4908 55.5183 61.0747 59.1982C60.6586 55.5183 59.8413 51.5321 58.3335 47.7939C55.5271 40.836 48.7335 38.3657 42.7074 36.1744C38.7531 34.7366 35.1294 33.4189 33.1795 31.0322C28.258 25.0085 27.7112 26.0561 27.7112 26.0561C27.7112 26.0561 25.2505 39.9369 31.2656 47.0082C36.2011 52.8104 38.9277 54.2044 40.9557 55.2413C41.3993 55.4681 41.8095 55.6778 42.2021 55.9129C42.6381 56.2261 43.3782 56.4769 44.338 56.8021C48.1937 58.1086 55.5947 60.6164 61.0677 73.1984C61.0677 73.1984 61.0701 73.1805 61.0747 73.1455Z" fill="#000"/>
<circle cx="61.0744" cy="60.7638" r="58.3374" stroke="#000" stroke-width="3.62633"/>
</svg>
