<svg width="17" height="16" viewBox="0 0 17 16" fill="none" xmlns="http://www.w3.org/2000/svg">
<path d="M11.3203 0C11.8255 0 12.3125 0.0651042 12.7812 0.195312C13.25 0.325521 13.6875 0.510417 14.0938 0.75C14.5 0.989583 14.8698 1.27865 15.2031 1.61719C15.5417 1.95052 15.8307 2.32031 16.0703 2.72656C16.3099 3.13281 16.4948 3.57031 16.625 4.03906C16.7552 4.50781 16.8203 4.99479 16.8203 5.5C16.8203 6.00521 16.7552 6.49219 16.625 6.96094C16.4948 7.42969 16.3099 7.86719 16.0703 8.27344C15.8307 8.67969 15.5417 9.05208 15.2031 9.39062C14.8698 9.72396 14.5 10.0104 14.0938 10.25C13.6875 10.4896 13.25 10.6745 12.7812 10.8047C12.3125 10.9349 11.8255 11 11.3203 11C10.6693 11 10.0443 10.8906 9.44531 10.6719C8.85156 10.4531 8.30469 10.138 7.80469 9.72656L1.67188 15.8516C1.57292 15.9505 1.45573 16 1.32031 16C1.1849 16 1.06771 15.9505 0.96875 15.8516C0.869792 15.7526 0.820312 15.6354 0.820312 15.5C0.820312 15.3646 0.869792 15.2474 0.96875 15.1484L7.09375 9.01562C6.68229 8.51562 6.36719 7.96875 6.14844 7.375C5.92969 6.77604 5.82031 6.15104 5.82031 5.5C5.82031 4.99479 5.88542 4.50781 6.01562 4.03906C6.14583 3.57031 6.33073 3.13281 6.57031 2.72656C6.8099 2.32031 7.09635 1.95052 7.42969 1.61719C7.76823 1.27865 8.14062 0.989583 8.54688 0.75C8.95312 0.510417 9.39062 0.325521 9.85938 0.195312C10.3281 0.0651042 10.8151 0 11.3203 0ZM11.3203 10C11.9401 10 12.5234 9.88281 13.0703 9.64844C13.6172 9.40885 14.0938 9.08594 14.5 8.67969C14.9062 8.27344 15.2266 7.79688 15.4609 7.25C15.7005 6.70312 15.8203 6.11979 15.8203 5.5C15.8203 4.88021 15.7005 4.29688 15.4609 3.75C15.2266 3.20312 14.9062 2.72656 14.5 2.32031C14.0938 1.91406 13.6172 1.59375 13.0703 1.35938C12.5234 1.11979 11.9401 1 11.3203 1C10.7005 1 10.1172 1.11979 9.57031 1.35938C9.02344 1.59375 8.54688 1.91406 8.14062 2.32031C7.73438 2.72656 7.41146 3.20312 7.17188 3.75C6.9375 4.29688 6.82031 4.88021 6.82031 5.5C6.82031 6.11979 6.9375 6.70312 7.17188 7.25C7.41146 7.79688 7.73438 8.27344 8.14062 8.67969C8.54688 9.08594 9.02344 9.40885 9.57031 9.64844C10.1172 9.88281 10.7005 10 11.3203 10Z" fill="#E54F6D"/>
</svg>
