<svg width="23" height="23" viewBox="0 0 23 23" fill="none" xmlns="http://www.w3.org/2000/svg">
<path d="M11.3766 19.1989C11.3766 19.1989 2.48828 14.2214 2.48828 8.17735C2.48846 7.10909 2.85862 6.07387 3.53581 5.24769C4.213 4.4215 5.15543 3.85536 6.20287 3.6455C7.25032 3.43565 8.33811 3.59504 9.28131 4.09658C10.2245 4.59811 10.9649 5.41084 11.3766 6.39658L11.3766 6.39658C11.7883 5.41085 12.5287 4.59812 13.4719 4.09658C14.4151 3.59504 15.5029 3.43565 16.5503 3.6455C17.5978 3.85536 18.5402 4.4215 19.2174 5.24769C19.8946 6.07387 20.2647 7.10909 20.2649 8.17735C20.2649 14.2214 11.3766 19.1989 11.3766 19.1989Z" stroke="white" stroke-width="1.42213" stroke-linecap="round" stroke-linejoin="round"/>
</svg>
